<mxfile host="app.diagrams.net" agent="Mozilla/5.0 (Windows NT 10.0; Win64; x64) AppleWebKit/537.36 (KHTML, like Gecko) Chrome/138.0.0.0 Safari/537.36 Edg/138.0.0.0" version="28.0.6">
  <diagram name="第 1 页" id="Bhr3kR4TJZ7QIFm6GPDQ">
    <mxGraphModel dx="1378" dy="764" grid="1" gridSize="10" guides="1" tooltips="1" connect="1" arrows="1" fold="1" page="1" pageScale="1" pageWidth="827" pageHeight="1169" math="0" shadow="0">
      <root>
        <mxCell id="0" />
        <mxCell id="1" parent="0" />
        <mxCell id="-aCgcJ6T9S30YweNRHuX-1" value="客户端" style="shape=umlLifeline;perimeter=lifelinePerimeter;whiteSpace=wrap;container=1;dropTarget=0;collapsible=0;recursiveResize=0;outlineConnect=0;portConstraint=eastwest;newEdgeStyle={&quot;edgeStyle&quot;:&quot;elbowEdgeStyle&quot;,&quot;elbow&quot;:&quot;vertical&quot;,&quot;curved&quot;:0,&quot;rounded&quot;:0};size=65;" vertex="1" parent="1">
          <mxGeometry x="20" y="20" width="150" height="1253" as="geometry" />
        </mxCell>
        <mxCell id="-aCgcJ6T9S30YweNRHuX-2" value="主服务" style="shape=umlLifeline;perimeter=lifelinePerimeter;whiteSpace=wrap;container=1;dropTarget=0;collapsible=0;recursiveResize=0;outlineConnect=0;portConstraint=eastwest;newEdgeStyle={&quot;edgeStyle&quot;:&quot;elbowEdgeStyle&quot;,&quot;elbow&quot;:&quot;vertical&quot;,&quot;curved&quot;:0,&quot;rounded&quot;:0};size=65;" vertex="1" parent="1">
          <mxGeometry x="245" y="20" width="150" height="1253" as="geometry" />
        </mxCell>
        <mxCell id="-aCgcJ6T9S30YweNRHuX-3" value="SourceService" style="shape=umlLifeline;perimeter=lifelinePerimeter;whiteSpace=wrap;container=1;dropTarget=0;collapsible=0;recursiveResize=0;outlineConnect=0;portConstraint=eastwest;newEdgeStyle={&quot;edgeStyle&quot;:&quot;elbowEdgeStyle&quot;,&quot;elbow&quot;:&quot;vertical&quot;,&quot;curved&quot;:0,&quot;rounded&quot;:0};size=65;" vertex="1" parent="1">
          <mxGeometry x="485" y="20" width="150" height="1253" as="geometry" />
        </mxCell>
        <mxCell id="-aCgcJ6T9S30YweNRHuX-4" value="Redis" style="shape=umlLifeline;perimeter=lifelinePerimeter;whiteSpace=wrap;container=1;dropTarget=0;collapsible=0;recursiveResize=0;outlineConnect=0;portConstraint=eastwest;newEdgeStyle={&quot;edgeStyle&quot;:&quot;elbowEdgeStyle&quot;,&quot;elbow&quot;:&quot;vertical&quot;,&quot;curved&quot;:0,&quot;rounded&quot;:0};size=65;" vertex="1" parent="1">
          <mxGeometry x="685" y="20" width="150" height="1253" as="geometry" />
        </mxCell>
        <mxCell id="-aCgcJ6T9S30YweNRHuX-5" value="launcher-content(Feign)" style="shape=umlLifeline;perimeter=lifelinePerimeter;whiteSpace=wrap;container=1;dropTarget=0;collapsible=0;recursiveResize=0;outlineConnect=0;portConstraint=eastwest;newEdgeStyle={&quot;edgeStyle&quot;:&quot;elbowEdgeStyle&quot;,&quot;elbow&quot;:&quot;vertical&quot;,&quot;curved&quot;:0,&quot;rounded&quot;:0};size=65;" vertex="1" parent="1">
          <mxGeometry x="885" y="20" width="189" height="1253" as="geometry" />
        </mxCell>
        <mxCell id="-aCgcJ6T9S30YweNRHuX-6" value="Elasticsearch" style="shape=umlLifeline;perimeter=lifelinePerimeter;whiteSpace=wrap;container=1;dropTarget=0;collapsible=0;recursiveResize=0;outlineConnect=0;portConstraint=eastwest;newEdgeStyle={&quot;edgeStyle&quot;:&quot;elbowEdgeStyle&quot;,&quot;elbow&quot;:&quot;vertical&quot;,&quot;curved&quot;:0,&quot;rounded&quot;:0};size=65;" vertex="1" parent="1">
          <mxGeometry x="1124" y="20" width="150" height="1253" as="geometry" />
        </mxCell>
        <mxCell id="-aCgcJ6T9S30YweNRHuX-7" value="alt" style="shape=umlFrame;dashed=1;pointerEvents=0;dropTarget=0;strokeColor=#B3B3B3;height=20;width=30" vertex="1" parent="1">
          <mxGeometry x="309" y="816" width="901" height="202" as="geometry" />
        </mxCell>
        <mxCell id="-aCgcJ6T9S30YweNRHuX-8" value="[分类支持类型缺失]" style="text;strokeColor=none;fillColor=none;align=center;verticalAlign=middle;whiteSpace=wrap;" vertex="1" parent="-aCgcJ6T9S30YweNRHuX-7">
          <mxGeometry x="30" width="871" height="20" as="geometry" />
        </mxCell>
        <mxCell id="-aCgcJ6T9S30YweNRHuX-9" value="loop" style="shape=umlFrame;dashed=1;pointerEvents=0;dropTarget=0;strokeColor=#B3B3B3;height=20;width=40" vertex="1" parent="1">
          <mxGeometry x="221" y="401" width="999" height="627" as="geometry" />
        </mxCell>
        <mxCell id="-aCgcJ6T9S30YweNRHuX-10" value="[遍历每个源数据]" style="text;strokeColor=none;fillColor=none;align=center;verticalAlign=middle;whiteSpace=wrap;" vertex="1" parent="-aCgcJ6T9S30YweNRHuX-9">
          <mxGeometry x="40" width="959" height="20" as="geometry" />
        </mxCell>
        <mxCell id="-aCgcJ6T9S30YweNRHuX-11" value="获取所有源(source)信息" style="verticalAlign=bottom;edgeStyle=elbowEdgeStyle;elbow=vertical;curved=0;rounded=0;endArrow=block;" edge="1" parent="1" source="-aCgcJ6T9S30YweNRHuX-2" target="-aCgcJ6T9S30YweNRHuX-3">
          <mxGeometry relative="1" as="geometry">
            <Array as="points">
              <mxPoint x="449" y="176" />
            </Array>
          </mxGeometry>
        </mxCell>
        <mxCell id="-aCgcJ6T9S30YweNRHuX-12" value="返回源数据列表" style="verticalAlign=bottom;edgeStyle=elbowEdgeStyle;elbow=vertical;curved=0;rounded=0;dashed=1;dashPattern=2 3;endArrow=block;" edge="1" parent="1" source="-aCgcJ6T9S30YweNRHuX-3" target="-aCgcJ6T9S30YweNRHuX-2">
          <mxGeometry relative="1" as="geometry">
            <Array as="points">
              <mxPoint x="452" y="228" />
            </Array>
          </mxGeometry>
        </mxCell>
        <mxCell id="-aCgcJ6T9S30YweNRHuX-13" value="读取源和分类支持的ObjectType数据" style="verticalAlign=bottom;edgeStyle=elbowEdgeStyle;elbow=vertical;curved=0;rounded=0;endArrow=block;" edge="1" parent="1" source="-aCgcJ6T9S30YweNRHuX-2" target="-aCgcJ6T9S30YweNRHuX-4">
          <mxGeometry relative="1" as="geometry">
            <Array as="points">
              <mxPoint x="549" y="280" />
            </Array>
          </mxGeometry>
        </mxCell>
        <mxCell id="-aCgcJ6T9S30YweNRHuX-14" value="返回缓存数据" style="verticalAlign=bottom;edgeStyle=elbowEdgeStyle;elbow=vertical;curved=0;rounded=0;dashed=1;dashPattern=2 3;endArrow=block;" edge="1" parent="1" source="-aCgcJ6T9S30YweNRHuX-4" target="-aCgcJ6T9S30YweNRHuX-2">
          <mxGeometry relative="1" as="geometry">
            <Array as="points">
              <mxPoint x="552" y="332" />
            </Array>
          </mxGeometry>
        </mxCell>
        <mxCell id="-aCgcJ6T9S30YweNRHuX-15" value="根据源ID查询分类信息" style="curved=1;endArrow=block;rounded=0;" edge="1" parent="1" source="-aCgcJ6T9S30YweNRHuX-2" target="-aCgcJ6T9S30YweNRHuX-2">
          <mxGeometry relative="1" as="geometry">
            <Array as="points">
              <mxPoint x="371" y="479" />
              <mxPoint x="371" y="509" />
            </Array>
          </mxGeometry>
        </mxCell>
        <mxCell id="-aCgcJ6T9S30YweNRHuX-16" value="获取分类的多语言名称" style="verticalAlign=bottom;edgeStyle=elbowEdgeStyle;elbow=vertical;curved=0;rounded=0;endArrow=block;" edge="1" parent="1" source="-aCgcJ6T9S30YweNRHuX-2" target="-aCgcJ6T9S30YweNRHuX-5">
          <mxGeometry relative="1" as="geometry">
            <Array as="points">
              <mxPoint x="658" y="561" />
            </Array>
          </mxGeometry>
        </mxCell>
        <mxCell id="-aCgcJ6T9S30YweNRHuX-17" value="返回分类名称" style="verticalAlign=bottom;edgeStyle=elbowEdgeStyle;elbow=vertical;curved=0;rounded=0;dashed=1;dashPattern=2 3;endArrow=block;" edge="1" parent="1" source="-aCgcJ6T9S30YweNRHuX-5" target="-aCgcJ6T9S30YweNRHuX-2">
          <mxGeometry relative="1" as="geometry">
            <Array as="points">
              <mxPoint x="661" y="613" />
            </Array>
          </mxGeometry>
        </mxCell>
        <mxCell id="-aCgcJ6T9S30YweNRHuX-18" value="更新本地缓存" style="curved=1;endArrow=block;rounded=0;" edge="1" parent="1" source="-aCgcJ6T9S30YweNRHuX-2" target="-aCgcJ6T9S30YweNRHuX-2">
          <mxGeometry relative="1" as="geometry">
            <Array as="points">
              <mxPoint x="371" y="714" />
              <mxPoint x="371" y="744" />
            </Array>
          </mxGeometry>
        </mxCell>
        <mxCell id="-aCgcJ6T9S30YweNRHuX-19" value="更新分类信息" style="verticalAlign=bottom;edgeStyle=elbowEdgeStyle;elbow=vertical;curved=0;rounded=0;endArrow=block;" edge="1" parent="1" source="-aCgcJ6T9S30YweNRHuX-2" target="-aCgcJ6T9S30YweNRHuX-4">
          <mxGeometry relative="1" as="geometry">
            <Array as="points">
              <mxPoint x="549" y="796" />
            </Array>
          </mxGeometry>
        </mxCell>
        <mxCell id="-aCgcJ6T9S30YweNRHuX-20" value="查询分类支持类型" style="verticalAlign=bottom;edgeStyle=elbowEdgeStyle;elbow=vertical;curved=0;rounded=0;endArrow=block;" edge="1" parent="1" source="-aCgcJ6T9S30YweNRHuX-2" target="-aCgcJ6T9S30YweNRHuX-6">
          <mxGeometry relative="1" as="geometry">
            <Array as="points">
              <mxPoint x="768" y="894" />
            </Array>
          </mxGeometry>
        </mxCell>
        <mxCell id="-aCgcJ6T9S30YweNRHuX-21" value="返回支持类型数据" style="verticalAlign=bottom;edgeStyle=elbowEdgeStyle;elbow=vertical;curved=0;rounded=0;dashed=1;dashPattern=2 3;endArrow=block;" edge="1" parent="1" source="-aCgcJ6T9S30YweNRHuX-6" target="-aCgcJ6T9S30YweNRHuX-2">
          <mxGeometry relative="1" as="geometry">
            <Array as="points">
              <mxPoint x="771" y="946" />
            </Array>
          </mxGeometry>
        </mxCell>
        <mxCell id="-aCgcJ6T9S30YweNRHuX-22" value="更新支持类型数据" style="verticalAlign=bottom;edgeStyle=elbowEdgeStyle;elbow=vertical;curved=0;rounded=0;endArrow=block;" edge="1" parent="1" source="-aCgcJ6T9S30YweNRHuX-2" target="-aCgcJ6T9S30YweNRHuX-4">
          <mxGeometry relative="1" as="geometry">
            <Array as="points">
              <mxPoint x="549" y="998" />
            </Array>
          </mxGeometry>
        </mxCell>
        <mxCell id="-aCgcJ6T9S30YweNRHuX-23" value="返回初始化结果(可选)" style="verticalAlign=bottom;edgeStyle=elbowEdgeStyle;elbow=vertical;curved=0;rounded=0;dashed=1;dashPattern=2 3;endArrow=block;" edge="1" parent="1" source="-aCgcJ6T9S30YweNRHuX-2" target="-aCgcJ6T9S30YweNRHuX-1">
          <mxGeometry relative="1" as="geometry">
            <Array as="points">
              <mxPoint x="219" y="1168" />
            </Array>
          </mxGeometry>
        </mxCell>
        <mxCell id="-aCgcJ6T9S30YweNRHuX-24" value="初始化分类信息缓存" style="fillColor=#ffff88;strokeColor=#9E916F;" vertex="1" parent="1">
          <mxGeometry x="237" y="95" width="166" height="49" as="geometry" />
        </mxCell>
        <mxCell id="-aCgcJ6T9S30YweNRHuX-25" value="构建本地缓存(ConcurrentHashMap)" style="fillColor=#ffff88;strokeColor=#9E916F;" vertex="1" parent="1">
          <mxGeometry x="184" y="352" width="273" height="49" as="geometry" />
        </mxCell>
        <mxCell id="-aCgcJ6T9S30YweNRHuX-26" value="构建CategoryInfo对象" style="fillColor=#ffff88;strokeColor=#9E916F;" vertex="1" parent="1">
          <mxGeometry x="231" y="633" width="178" height="49" as="geometry" />
        </mxCell>
        <mxCell id="-aCgcJ6T9S30YweNRHuX-27" value="整理缓存数据为列表" style="fillColor=#ffff88;strokeColor=#9E916F;" vertex="1" parent="1">
          <mxGeometry x="237" y="1038" width="166" height="49" as="geometry" />
        </mxCell>
        <mxCell id="-aCgcJ6T9S30YweNRHuX-28" value="记录初始化耗时" style="fillColor=#ffff88;strokeColor=#9E916F;" vertex="1" parent="1">
          <mxGeometry x="245" y="1087" width="150" height="49" as="geometry" />
        </mxCell>
      </root>
    </mxGraphModel>
  </diagram>
</mxfile>
